<?xml version="1.0" encoding="UTF-8" standalone="no"?>
<svg
   width="1093"
   height="1279"
   version="1.1"
   id="svg282"
   viewBox="0 0 1093 1279"
   xmlns:xlink="http://www.w3.org/1999/xlink"
   xmlns="http://www.w3.org/2000/svg"
   xmlns:svg="http://www.w3.org/2000/svg">
  <defs
     id="defs286">
    <pattern
       xlink:href="#Strips1_1"
       id="pattern8677"
       patternTransform="matrix(10.965904,2.4296147,-4.3823163,6.0796437,18.044576,-0.21544905)" />
    <pattern
       patternUnits="userSpaceOnUse"
       width="2"
       height="1"
       patternTransform="translate(0,0) scale(10,10)"
       id="Strips1_1">
      <rect
         style="fill:black;stroke:none;fill-opacity:0.3"
         x="0"
         y="0"
         width="2"
         height="1"
         id="backgroundRect" />
      <rect
         style="fill:black;stroke:none"
         x="0"
         y="-0.5"
         width="1"
         height="2"
         id="rect2137" />
    </pattern>
  </defs>
  <g
     id="floor_1"
     style="display:inline">
    <g
       transform="translate(20)"
       style="display:inline"
       id="bg1">
      <!-- 1階 -->
      <path
         fill="#e0ffff"
         stroke="#000000"
         stroke-width="1px"
         d="m 16,977 v 302 H 1073 V 977 Z"
         id="path2" />
      <!-- 和田昭允記念ホール -->
      <path
         fill="#d0b0ff"
         stroke="#000000"
         stroke-width="1px"
         id="WADA_AKIYOSHI_MEMORIAL_HALL"
         d="m 795,1048 v 160 h 193 v 71 h 85 V 977 h -85 v 71 z" />
      <!-- 剣道場 -->
      <path
         fill="#ffffff"
         stroke="#000000"
         stroke-width="1px"
         id="____kendo"
         d="m 555,1128 v 151 h 135 v -151 z" />
      <!-- 柔道場 -->
      <path
         fill="#ffffff"
         stroke="#000000"
         stroke-width="1px"
         id="____judo"
         d="m 420,1128 v 151 h 135 v -151 z" />
      <!-- 交流センター -->
      <path
         fill="#ffffff"
         stroke="#000000"
         stroke-width="1px"
         id="Communication_Center"
         d="m 420,977 v 151 H 690 V 977 Z" />
      <!-- カフェテリア -->
      <path
         fill="#ffffff"
         stroke="#000000"
         stroke-width="1px"
         id="Cafeteria"
         d="m 16,977 v 151 H 330 V 977 Z" />
      <path
         fill="#ffffe0"
         stroke="#000000"
         stroke-width="1px"
         d="M 0,0 V 184 H 60 V 0 Z M 0,289 V 473 H 60 V 289 Z M 0,578 V 762 H 60 V 578 Z"
         id="____riverside1"
         style="stroke:none" />
      <path
         fill="#ffffe0"
         stroke="#000000"
         stroke-width="1px"
         d="M 776,762 H 909 V 289 H 804 V 0 h -28 v 289 z"
         id="____trainside1"
         style="stroke:none" />
      <path
         fill="#ffffe0"
         stroke="#000000"
         stroke-width="1px"
         d="M 25,184 V 289 H 65 V 184 Z m 476,0 v 105 h 55 V 184 Z M 25,473 V 578 H 65 V 473 Z m 476,0 v 105 h 55 V 473 Z"
         id="____passage1"
         style="display:inline;stroke:none" />
      <path
         fill="#ffffe0"
         stroke="#000000"
         stroke-width="1px"
         d="m 65,219 v 36 h 65 v -36 z m 371,0 v 36 h 65 v -36 z m 275,0 v 36 h 65 V 219 Z M 65,508 v 36 h 65 v -36 z"
         id="____staircases1"
         style="display:inline;stroke:none;stroke-opacity:1" />
      <path
         fill="#ffffe0"
         stroke="#000000"
         stroke-width="1px"
         d="m 60,578 v 184 h 356 v -22 h 180 v 22 H 776 V 578 Z"
         id="____S1"
         style="display:inline;stroke:none" />
      <path
         fill="#ffffe0"
         stroke="#000000"
         stroke-width="1px"
         d="M 60,289 V 473 H 776 V 289 H 506 Z"
         id="____C1"
         style="display:inline;stroke:none" />
      <path
         fill="#ffffe0"
         stroke="#000000"
         stroke-width="1px"
         d="M 60,0 V 184 H 776 V 0 Z"
         id="____N1"
         style="display:inline;stroke:none" />
      <path
         fill="none"
         stroke="#000000"
         stroke-width="1px"
         d="m 646,578 v 74 z m 40,0 v 74 z m -20,19 v 36 z m -20,0 h 40 z m 0,3 h 40 z m 0,3 h 40 z m 0,3 h 40 z m 0,3 h 20 z m 0,3 h 20 z m 0,3 h 20 z m 0,3 h 20 z m 0,3 h 20 z m 0,3 h 20 z m 0,3 h 20 z m 0,3 h 20 z m 0,3 h 40 z m 40,-24 -20,-3 z"
         id="____staircase11"
         style="display:inline" />
      <path
         fill="none"
         stroke="#000000"
         stroke-width="1px"
         d="m 146,578 v 74 z m 40,0 v 74 z m -20,19 v 36 z m -20,0 h 40 z m 0,3 h 40 z m 0,3 h 40 z m 0,3 h 40 z m 20,3 h 20 z m 0,3 h 20 z m 0,3 h 20 z m 0,3 h 20 z m 0,3 h 20 z m 0,3 h 20 z m 0,3 h 20 z m 0,3 h 20 z m -20,3 h 40 z m 0,-24 20,-3 z"
         id="____staircase12"
         style="display:inline" />
      <path
         fill="none"
         stroke="#000000"
         stroke-width="1px"
         d="m 80,526 h 36 z m 0,-18 v 36 z m 3,18 v 18 z m 3,0 v 18 z m 3,0 v 18 z m 3,0 v 18 z m 3,0 v 18 z m 3,0 v 18 z m 3,0 v 18 z m 3,0 v 18 z m 3,-18 v 36 z m 3,0 v 36 z m 3,0 v 36 z m 3,0 v 36 z m -12,0 3,18 z"
         id="____staircase13"
         style="display:inline" />
      <path
         fill="none"
         stroke="#000000"
         stroke-width="1px"
         d="m 725,237 h 36 z m 0,-18 v 36 z m 3,0 v 36 z m 3,0 v 36 z m 3,0 v 36 z m 3,18 v 18 z m 3,0 v 18 z m 3,0 v 18 z m 3,0 v 18 z m 3,0 v 18 z m 3,0 v 18 z m 3,0 v 18 z m 3,0 v 18 z m 3,-18 v 36 z m -24,0 -3,18 z"
         id="____staircase14"
         style="display:inline" />
      <path
         fill="none"
         stroke="#000000"
         stroke-width="1px"
         d="m 450,237 h 36 z m 0,-18 v 36 z m 3,0 v 36 z m 3,0 v 36 z m 3,0 v 36 z m 3,18 v 18 z m 3,0 v 18 z m 3,0 v 18 z m 3,0 v 18 z m 3,0 v 18 z m 3,0 v 18 z m 3,0 v 18 z m 3,0 v 18 z m 3,-18 v 36 z m -24,0 -3,18 z"
         id="____staircase155"
         style="display:inline" />
      <path
         fill="none"
         stroke="#000000"
         stroke-width="1px"
         d="m 80,237 h 36 z m 0,-18 v 36 z m 3,18 v 18 z m 3,0 v 18 z m 3,0 v 18 z m 3,0 v 18 z m 3,0 v 18 z m 3,0 v 18 z m 3,0 v 18 z m 3,0 v 18 z m 3,-18 v 36 z m 3,0 v 36 z m 3,0 v 36 z m 3,0 v 36 z m -12,0 3,18 z"
         id="____staircase16"
         style="display:inline" />
      <!-- テラス -->
      <!-- テラス -->
      <path
         fill="#ffd080"
         stroke="#000000"
         stroke-width="1px"
         id="____terrace1"
         d="m 416,473 v 105 h 85 V 473 Z"
         style="display:inline;stroke:none" />
      <path
         fill="#ffd080"
         stroke="#000000"
         stroke-width="1px"
         id="____terrace2"
         d="m 556,184 v 105 h 40 V 184 Z"
         style="display:inline;stroke:none" />
      <path
         fill="#ffffff"
         stroke="#000000"
         stroke-width="1px"
         id="____gomistation"
         d="m 776,0 v 74 h 28 V 0 Z"
         style="display:inline" />
      <!-- EV -->
      <path
         fill="#ffffff"
         stroke="#000000"
         stroke-width="1px"
         id="____EV11"
         d="m 686,615 v 37 h 29 v -37 z"
         style="display:inline" />
      <!-- WC -->
      <path
         fill="#ffffff"
         stroke="#000000"
         stroke-width="1px"
         id="____WC11"
         d="m 686,578 h 90 v 74 h -61 v -37 h -29 z"
         style="display:inline" />
      <!-- WC -->
      <path
         fill="#ffffff"
         stroke="#000000"
         stroke-width="1px"
         id="____WC12"
         d="m 60,578 h 86 v 37 h -29 v 37 H 60 v -37 z"
         style="display:inline" />
      <!-- EV -->
      <path
         fill="#ffffff"
         stroke="#000000"
         stroke-width="1px"
         id="____EV12"
         d="m 416,110 v 37 h 29 v -37 z"
         style="display:inline" />
      <!-- WC -->
      <path
         fill="#ffffff"
         stroke="#000000"
         stroke-width="1px"
         id="____WC13"
         d="m 506,184 h -90 v -37 h 29 v -37 h 61 z"
         style="display:inline" />
      <!-- 校長室 -->
      <path
         fill="#b0d0ff"
         stroke="#000000"
         stroke-width="1px"
         id="Principals_Office"
         d="m 823,381 v 18 h -15 v 37 h 101 v -55 z"
         style="display:inline" />
      <!-- 応接室 -->
      <path
         fill="#b0d0ff"
         stroke="#000000"
         stroke-width="1px"
         id="Reception_Room"
         d="m 823,330 v 51 h 86 v -51 z"
         style="display:inline" />
      <!-- 印刷室 -->
      <path
         fill="#b0d0ff"
         stroke="#000000"
         stroke-width="1px"
         id="Printing_Room"
         d="m 823,289 v 41 h 86 v -41 z"
         style="display:inline" />
      <!-- 職員室 -->
      <path
         fill="#ffffff"
         stroke="#000000"
         stroke-width="1px"
         id="Teachers_Room"
         d="m 808,436 h 122 l 70,326 H 823 v -74 h -15 z"
         style="display:inline" />
      <!-- 事務室 -->
      <path
         fill="#b0d0ff"
         stroke="#000000"
         stroke-width="1px"
         id="School_Office"
         d="m 596,688 v 74 h 133 v -74 z m 50,0 v 74 z"
         style="display:inline" />
      <!-- 昇降口 -->
      <path
         fill="#ffffff"
         stroke="#000000"
         stroke-width="1px"
         id="____syoukouguti"
         d=""
         style="display:inline" />
      <!-- スタ\nジオ -->
      <path
         fill="#d0b0ff"
         stroke="#000000"
         stroke-width="1px"
         id="Studio"
         d="m 326,688 v 74 h 90 v -74 z"
         style="display:inline" />
      <!-- 放\n送\n室 -->
      <path
         fill="#d0b0ff"
         stroke="#000000"
         stroke-width="1px"
         id="Broadcasting_Room"
         d="m 281,688 v 74 h 45 v -74 z"
         style="display:inline" />
      <!-- 保健室 -->
      <path
         fill="#b0d0ff"
         stroke="#000000"
         stroke-width="1px"
         id="Nurses_Office"
         d="m 146,688 v 74 h 135 v -74 z"
         style="display:inline" />
      <!-- 屋外\n実習室 -->
      <path
         fill="#b0ffb0"
         stroke="#000000"
         stroke-width="1px"
         id="Fieldwork_Lab"
         d="m 60,688 v 74 h 86 v -74 z"
         style="display:inline" />
      <!-- 科学\n技術\n顧問室 -->
      <path
         fill="#b0d0ff"
         stroke="#000000"
         stroke-width="1px"
         id="Science_and_Technology_Advisors_Room"
         d="m 326,578 v 74 h 90 v -74 z"
         style="display:inline" />
      <path
         id="____room1"
         style="fill:#ffffff;fill-rule:evenodd;stroke:#000000;stroke-width:1;stroke-linecap:butt;stroke-linejoin:miter;stroke-miterlimit:0;stroke-dasharray:none;stroke-opacity:1;paint-order:normal"
         d="M 646,473 H 776 V 578 H 646 Z" />
      <!-- 視聴覚室 -->
      <path
         fill="#d0b0ff"
         stroke="#000000"
         stroke-width="1px"
         id="Audio_Visual_Room"
         d="m 186,578 v 74 h 140 v -74 z"
         style="display:inline" />
      <!-- 音楽室 -->
      <path
         fill="#d0b0ff"
         stroke="#000000"
         stroke-width="1px"
         id="Music_Room"
         d="m 551,399 v 74 h 225 v -74 z m 180,0 v 74 z"
         style="display:inline" />
      <path
         fill="#ffffff"
         stroke="#000000"
         stroke-width="1px"
         id="____souko1"
         d="m 461,399 v 74 h 45 v -74 z"
         style="display:inline" />
      <path
         fill="#ffb090"
         stroke="#000000"
         stroke-width="1px"
         id="Nanotechnology_Dept_Office"
         d="m 416,399 v 74 h 45 v -74 z"
         style="display:inline" />
      <!-- ナノ材料評価室 -->
      <path
         fill="#ffb090"
         stroke="#000000"
         stroke-width="1px"
         id="Nanomaterial_Observatory_Room"
         d="m 146,399 v 74 h 270 v -74 z m 45,37 v 37 z m 45,0 v 37 z m 45,0 v 37 z m 45,0 v 37 z m 45,-37 v 37 z m 0,37 h 45 z m 15,-37 v 37 z"
         style="display:inline" />
      <!-- C12\n\n\nC11 -->
      <path
         style="display:inline;fill:#d0b0ff;fill-opacity:1;stroke:#000000;stroke-opacity:1"
         d="m 60,399 v 74 h 86 v -74 z"
         id="Seminar_Room_C11" />
      <!-- 楽\n器\n室 -->
      <path
         fill="#d0b0ff"
         stroke="#000000"
         stroke-width="1px"
         id="Music_Dept_Stock_Room"
         d="m 741,289 v 74 h 35 v -74 z"
         style="display:inline" />
      <!-- 練\n習\n室 -->
      <path
         fill="#ffffff"
         stroke="#000000"
         stroke-width="1px"
         id="____rensyu"
         d="m 686,289 v 30 h 55 v -30 z m 0,30 h 35 v 44 h -19 v -13 h -16 z"
         style="display:inline" />
      <!-- 和室 -->
      <path
         fill="#d0b0ff"
         stroke="#000000"
         stroke-width="1px"
         id="Tea_Ceremony_Room"
         d="m 596,289 h 20 v -10 h 50 v 10 h 20 v 61 h 16 v 13 H 596 Z"
         style="display:inline" />
      <!-- 電子\n顕微鏡\n室 -->
      <path
         fill="#b0d0ff"
         stroke="#000000"
         stroke-width="1px"
         id="Electron_Microscope_Lab"
         d="m 416,289 v 74 h 90 v -74 z m 45,0 v 74 z"
         style="display:inline" />
      <!-- ナノ材料創製室 -->
      <path
         fill="#ffb090"
         stroke="#000000"
         stroke-width="1px"
         id="Nanomaterial_Generation_Lab"
         d="m 146,289 v 74 h 270 v -74 z m 90,0 v 50 z m 45,0 v 37 z m 45,0 v 37 z"
         style="display:inline" />
      <path
         style="display:inline;fill:#d0b0ff;fill-opacity:1;stroke:#000000;stroke-opacity:1"
         d="m 60,289 v 74 h 86 v -74 z"
         id="Seminar_Room_C12" />
      <path
         fill="#d0b0ff"
         stroke="#000000"
         stroke-width="1px"
         id="Home_Economics_Dept_Office"
         d="m 729,110 v 74 h 47 v -74 z"
         style="display:inline" />
      <!-- 調理室 -->
      <path
         fill="#d0b0ff"
         stroke="#000000"
         stroke-width="1px"
         id="Cooking_Room"
         d="m 596,110 v 74 h 133 v -74 z"
         style="display:inline" />
      <!-- 環境実験室 -->
      <path
         fill="#b0d0ff"
         stroke="#000000"
         stroke-width="1px"
         id="Environmental_Science_Lab"
         d="m 236,110 v 74 h 180 v -74 z m 135,0 v 74 z"
         style="display:inline" />
      <!-- 分析室 -->
      <path
         fill="#b0d0ff"
         stroke="#000000"
         stroke-width="1px"
         id="Analytical_Lab"
         d="m 60,110 v 74 h 176 v -74 z m 86,0 v 74 z"
         style="display:inline" />
      <!-- 被服室 -->
      <path
         fill="#d0b0ff"
         stroke="#000000"
         stroke-width="1px"
         id="Sewing_Room"
         d="m 686,0 v 74 h 90 V 0 Z"
         style="display:inline" />
      <!-- 美術\n工芸室 -->
      <path
         fill="#d0b0ff"
         stroke="#000000"
         stroke-width="1px"
         id="Art_and_Craft_Room"
         d="M 551,0 V 74 H 686 V 0 Z"
         style="display:inline" />
      <path
         fill="#d0b0ff"
         stroke="#000000"
         stroke-width="1px"
         id="Art_and_Calligraphy_Dept_Office"
         d="m 506,0 v 74 h 45 V 0 Z"
         style="display:inline" />
      <!-- 書道室 -->
      <path
         fill="#d0b0ff"
         stroke="#000000"
         stroke-width="1px"
         id="Calligraphy_Room"
         d="M 371,0 V 74 H 506 V 0 Z m 0,35 v 39 h 29 V 35 Z"
         style="display:inline" />
      <!-- 金工・木工室 -->
      <path
         fill="#d0b0ff"
         stroke="#000000"
         stroke-width="1px"
         id="Metalworking_Woodworking_Woom"
         d="M 103,0 V 74 H 371 V 0 Z M 60,0 v 30 h 43 V 0 Z m 0,30 V 74 H 90 V 30 Z"
         style="display:inline" />
      <path
         fill="none"
         stroke="#000000"
         stroke-width="1px"
         d="m 65,184 h 436 v 35 h -65 v 36 h 65 v 34 H 65 v -34 h 65 V 219 H 65 Z m 491,0 h 220 v 35 h -65 v 36 h 65 v 34 H 666 v -10 h -50 v 10 H 556 Z M 65,473 H 501 V 578 H 65 v -34 h 65 V 508 H 65 Z m 491,0 V 578 H 776 V 473 Z"
         id="____inner1"
         style="display:inline" />
      <path
         fill="none"
         stroke="#000000"
         stroke-width="1px"
         d="m 0,0 h 804 v 289 h 105 v 147 h 21 l 70,326 H 596 V 740 H 416 v 22 H 0 V 578 H 25 V 473 H 0 V 289 H 25 V 184 H 0 Z"
         id="____outer1"
         style="display:inline;stroke-width:1;stroke-dasharray:none" />
      <path
         id="____backyard11"
         style="display:inline;opacity:1;fill:url(#pattern8677);fill-rule:evenodd;stroke-width:0;stroke-linecap:square;stroke-linejoin:round;stroke-miterlimit:0;paint-order:markers stroke fill"
         d="m 60,0 h 311 v 110 h 45 v 74 H 371 60 Z"
         class="UnoptimicedTransforms" />
      <path
         id="____backyard12"
         style="display:inline;fill:url(#pattern8677);fill-rule:evenodd;stroke-width:0;stroke-linecap:square;stroke-linejoin:round;stroke-miterlimit:0;paint-order:markers stroke fill"
         d="M 60,0 H 506 V 184 H 60 Z"
         class="UnoptimicedTransforms"
         transform="translate(0,289)" />
      <path
         id="____backyard13"
         style="display:inline;fill:url(#pattern8677);fill-rule:evenodd;stroke-width:0;stroke-linecap:square;stroke-linejoin:round;stroke-miterlimit:0;paint-order:markers stroke fill"
         d="M 516,0 H 814 V 289 H 919 V 436 H 818 V 688 H 786 V 578 H 656 V 473 H 561 V 399 H 712 L 712.0847,350 696,349.89624 V 289 h 90 v -34 h -65 v -36 h 65 V 184 H 606 V 74 h -90 z"
         class="UnoptimicedTransforms"
         transform="translate(-10)" />
    </g>
  </g>
</svg>
