<?xml version="1.0" encoding="UTF-8" standalone="no"?>
<svg
   width="1093"
   height="1279"
   version="1.1"
   id="svg282"
   viewBox="0 0 1093 1279"
   xmlns:xlink="http://www.w3.org/1999/xlink"
   xmlns="http://www.w3.org/2000/svg"
   xmlns:svg="http://www.w3.org/2000/svg">
  <defs
     id="defs286">
    <pattern
       xlink:href="#Strips1_1"
       id="pattern8677"
       patternTransform="matrix(10.965904,2.4296147,-4.3823163,6.0796437,18.044576,-0.21544905)" />
    <pattern
       patternUnits="userSpaceOnUse"
       width="2"
       height="1"
       patternTransform="translate(0,0) scale(10,10)"
       id="Strips1_1">
      <rect
         style="fill:black;stroke:none;fill-opacity:0.3"
         x="0"
         y="0"
         width="2"
         height="1"
         id="backgroundRect" />
      <rect
         style="fill:black;stroke:none"
         x="0"
         y="-0.5"
         width="1"
         height="2"
         id="rect2137" />
    </pattern>
  </defs>
  <g
     id="floor_2"
     style="display:inline">
    <g
       transform="translate(20)"
       style="display:inline"
       id="bg2">
      <!-- 2階 -->
      <path
         fill="#e0ffff"
         stroke="#000000"
         stroke-width="1px"
         d="m 16,977 v 302 H 1073 V 977 Z"
         id="path79"
         style="display:inline" />
      <!-- リバービュー\nラウンジ -->
      <path
         fill="#ffffff"
         stroke="#000000"
         stroke-width="1px"
         id="____riverviewlounge2"
         d="m 16,1128 v 151 h 84 v -151 z"
         style="display:inline" />
      <!-- アリーナ -->
      <path
         fill="#ffffff"
         stroke="#000000"
         stroke-width="1px"
         id="Arena"
         d="m 330,977 v 302 H 690 V 977 Z"
         style="display:inline" />
      <!-- 体育準備室 -->
      <path
         fill="#d0b0ff"
         stroke="#000000"
         stroke-width="1px"
         id="PE_Dept_Office"
         d="m 690,1208 v 71 h 86 v -71 z"
         style="display:inline" />
      <!-- トレーニングルーム -->
      <path
         fill="#d0b0ff"
         stroke="#000000"
         stroke-width="1px"
         id="Weight_Room"
         d="m 830,1208 v 71 h 158 v -71 z" />
      <!-- 映\n写\n室 -->
      <path
         fill="#ffffff"
         stroke="#000000"
         stroke-width="1px"
         id="Projection_Booth"
         d="m 810,1048 v 160 h 30 v -160 z" />
      <!-- 保健講義室 -->
      <path
         fill="#b0d0ff"
         stroke="#000000"
         stroke-width="1px"
         id="Health_Education_Room"
         d="m 830,977 v 71 h 158 v -71 z" />
      <!-- 智\n恵\nの\n懸\nけ\n橋 -->
      <path
         fill="#ffffff"
         stroke="#000000"
         stroke-width="1px"
         id="The_Bridge_of_Wisdom"
         d="M 8,762 V 977 H 60 V 762 Z" />
      <!-- 知\n識\nの\n懸\nけ\n橋 -->
      <path
         fill="#ffffff"
         stroke="#000000"
         stroke-width="1px"
         id="The_Bridge_of_Knowledge"
         d="m 776,762 v 215 h 54 V 762 Z" />
      <path
         id="____riverside2"
         style="display:inline;fill:#ffffe0;fill-opacity:1;stroke:none"
         d="M 0,74 V 184 H 60 V 74 Z m 30,215 v 74 H 0 V 473 H 60 V 289 Z m 0,289 v 74 H 0 V 762 H 60 V 578 Z" />
      <path
         fill="#ffffe0"
         stroke="#000000"
         stroke-width="1px"
         d="M 776,762 H 909 V 289 H 804 V 0 h -28 z"
         id="____trainside2"
         style="display:inline;stroke:none" />
      <path
         fill="#ffffe0"
         stroke="#000000"
         stroke-width="1px"
         d="M 25,184 V 289 H 65 V 184 Z m 476,0 v 105 h 55 V 184 Z M 25,473 V 578 H 65 V 473 Z m 476,0 v 105 h 55 V 473 Z"
         id="____passage2"
         style="display:inline;stroke:none" />
      <path
         fill="#ffffe0"
         stroke="#000000"
         stroke-width="1px"
         d="m 65,219 v 36 h 65 v -36 z m 371,0 v 36 h 65 v -36 z m 275,0 v 36 h 65 V 219 Z M 65,508 v 36 h 65 v -36 z"
         id="____staircases2"
         style="display:inline;stroke:none" />
      <path
         fill="#ffffe0"
         stroke="#000000"
         stroke-width="1px"
         d="m 60,578 v 184 h 356 v -62 h 180 v 62 H 776 V 578 Z"
         id="____S2"
         style="display:inline;stroke:none" />
      <path
         fill="#ffffe0"
         stroke="#000000"
         stroke-width="1px"
         d="M 60,289 V 473 H 776 V 289 Z"
         id="____C2"
         style="display:inline;stroke:none" />
      <path
         fill="#ffffe0"
         stroke="#000000"
         stroke-width="1px"
         d="M 60,0 V 184 H 776 V 0 Z"
         id="____N2"
         style="display:inline;stroke:none" />
      <path
         fill="none"
         stroke="#000000"
         stroke-width="1px"
         d="M 60,74 0,0 H 60 L 0,74 V 0 Z M 60,0 V 74 H 0 Z M 30,363 0,289 H 30 L 0,363 v -74 z m 0,-74 v 74 H 0 Z M 30,652 0,578 H 30 L 0,652 v -74 z m 0,-74 v 74 H 0 Z"
         id="____atriums2"
         style="display:inline" />
      <path
         fill="none"
         stroke="#000000"
         stroke-width="1px"
         d="m 646,578 v 74 z m 40,0 v 74 z m -20,19 v 36 z m -20,0 h 40 z m 0,3 h 40 z m 0,3 h 40 z m 0,3 h 40 z m 0,3 h 20 z m 0,3 h 40 z m 0,3 h 40 z m 0,3 h 40 z m 0,3 h 40 z m 0,3 h 40 z m 0,3 h 40 z m 0,3 h 40 z m 0,3 h 40 z m 40,-24 -20,-3 z"
         id="____staircase21"
         style="display:inline" />
      <path
         fill="none"
         stroke="#000000"
         stroke-width="1px"
         d="m 146,578 v 74 z m 40,0 v 74 z m -20,19 v 36 z m -20,0 h 40 z m 0,3 h 40 z m 0,3 h 40 z m 0,3 h 40 z m 20,3 h 20 z m -20,3 h 40 z m 0,3 h 40 z m 0,3 h 40 z m 0,3 h 40 z m 0,3 h 40 z m 0,3 h 40 z m 0,3 h 40 z m 0,3 h 40 z m 0,-24 20,-3 z"
         id="____staircase22"
         style="display:inline" />
      <path
         fill="none"
         stroke="#000000"
         stroke-width="1px"
         d="m 80,526 h 36 z m 0,-18 v 36 z m 3,0 v 36 z m 3,0 v 36 z m 3,0 v 36 z m 3,0 v 36 z m 3,0 v 36 z m 3,0 v 36 z m 3,0 v 36 z m 3,18 v 18 z m 3,-18 v 36 z m 3,0 v 36 z m 3,0 v 36 z m 3,0 v 36 z m -12,0 3,18 z"
         id="____staircase23"
         style="display:inline" />
      <path
         fill="none"
         stroke="#000000"
         stroke-width="1px"
         d="m 725,237 h 36 z m 0,-18 v 36 z m 3,0 v 36 z m 3,0 v 36 z m 3,0 v 36 z m 3,18 v 18 z m 3,-18 v 36 z m 3,0 v 36 z m 3,0 v 36 z m 3,0 v 36 z m 3,0 v 36 z m 3,0 v 36 z m 3,0 v 36 z m 3,0 v 36 z m -24,0 -3,18 z"
         id="____staircase24"
         style="display:inline" />
      <path
         fill="none"
         stroke="#000000"
         stroke-width="1px"
         d="m 450,237 h 36 z m 0,-18 v 36 z m 3,0 v 36 z m 3,0 v 36 z m 3,0 v 36 z m 3,18 v 18 z m 3,-18 v 36 z m 3,0 v 36 z m 3,0 v 36 z m 3,0 v 36 z m 3,0 v 36 z m 3,0 v 36 z m 3,0 v 36 z m 3,0 v 36 z m -24,0 -3,18 z"
         id="____staircase25"
         style="display:inline" />
      <path
         fill="none"
         stroke="#000000"
         stroke-width="1px"
         d="m 80,237 h 36 z m 0,-18 v 36 z m 3,0 v 36 z m 3,0 v 36 z m 3,0 v 36 z m 3,0 v 36 z m 3,0 v 36 z m 3,0 v 36 z m 3,0 v 36 z m 3,18 v 18 z m 3,-18 v 36 z m 3,0 v 36 z m 3,0 v 36 z m 3,0 v 36 z m -12,0 3,18 z"
         id="____staircase26"
         style="display:inline" />
      <path
         fill="#ffd080"
         stroke="#000000"
         stroke-width="1px"
         id="____veranda5"
         d="M -20,578 V 762 H 0 V 578 Z"
         style="display:inline" />
      <path
         fill="#ffd080"
         stroke="#000000"
         stroke-width="1px"
         id="____veranda4"
         d="M -20,289 V 473 H 0 V 289 Z"
         style="display:inline" />
      <path
         fill="#ffd080"
         stroke="#000000"
         stroke-width="1px"
         id="____veranda3"
         d="M -20,0 V 184 H 0 V 0 Z"
         style="display:inline" />
      <path
         fill="#ffd080"
         stroke="#000000"
         stroke-width="1px"
         id="____veranda2"
         d="m 556,214 v 45 h 20 v -45 z"
         style="display:inline" />
      <path
         fill="#ffd080"
         stroke="#000000"
         stroke-width="1px"
         id="____veranda1"
         d="m 481,503 v 45 h 20 v -45 z"
         style="display:inline" />
      <!-- 吹き抜け -->
      <!-- EV -->
      <path
         fill="#ffffff"
         stroke="#000000"
         stroke-width="1px"
         id="____EV21"
         d="m 686,615 v 37 h 29 v -37 z"
         style="display:inline" />
      <!-- WC -->
      <path
         fill="#ffffff"
         stroke="#000000"
         stroke-width="1px"
         id="____WC21"
         d="m 686,578 h 90 v 74 h -61 v -37 h -29 z"
         style="display:inline" />
      <!-- WC -->
      <path
         fill="#ffffff"
         stroke="#000000"
         stroke-width="1px"
         id="____WC22"
         d="m 60,578 h 86 v 37 h -29 v 37 H 60 v -37 z"
         style="display:inline" />
      <!-- EV -->
      <path
         fill="#ffffff"
         stroke="#000000"
         stroke-width="1px"
         id="____EV22"
         d="m 416,110 v 37 h 29 v -37 z"
         style="display:inline" />
      <!-- WC -->
      <path
         fill="#ffffff"
         stroke="#000000"
         stroke-width="1px"
         id="____WC23"
         d="m 506,184 h -90 v -37 h 29 v -37 h 61 z"
         style="display:inline" />
      <path
         fill="#d0b0ff"
         stroke="#000000"
         stroke-width="1px"
         id="_Music_Room"
         d="m 551,399 v 74 h 135 v -74 z"
         style="display:inline" />
      <!-- 大会議室 -->
      <path
         fill="#b0d0ff"
         stroke="#000000"
         stroke-width="1px"
         id="Meeting_Room_1"
         d="m 823,289 v 147 h 86 V 289 Z"
         style="display:inline" />
      <!-- 中会議室 -->
      <path
         fill="#b0d0ff"
         stroke="#000000"
         stroke-width="1px"
         id="Meeting_Room_2"
         d="m 823,436 v 64 h 86 v -64 z"
         style="display:inline" />
      <!-- スーパーアドバイザー室 -->
      <path
         fill="#b0d0ff"
         stroke="#000000"
         stroke-width="1px"
         id="Super_Advisors_Room"
         d="m 823,500 v 78 h 86 v -78 z"
         style="display:inline" />
      <!-- 特別会議室 -->
      <path
         fill="#b0d0ff"
         stroke="#000000"
         stroke-width="1px"
         id="Round_table_Meeting_Room"
         d="m 823,578 v 74 h 86 v -74 z"
         style="display:inline" />
      <!-- 小会議室 -->
      <path
         fill="#b0d0ff"
         stroke="#000000"
         stroke-width="1px"
         id="Meeting_Room_3"
         d="m 823,652 v 36 h 86 v -36 z"
         style="display:inline" />
      <path
         fill="#ffffff"
         stroke="#000000"
         stroke-width="1px"
         id="____kyomu"
         d="m 853,688 h 56 v 74 h -46 v -37 h -40 v -19 h 30 z"
         style="display:inline" />
      <path
         fill="#ffffff"
         stroke="#000000"
         stroke-width="1px"
         id="____taika"
         d="m 823,725 v 37 h 40 v -37 z"
         style="display:inline" />
      <!-- 講師職員室 -->
      <path
         fill="#d0b0ff"
         stroke="#000000"
         stroke-width="1px"
         id="Instructors_Room"
         d="m 596,688 v 74 h 180 v -74 z"
         style="display:inline" />
      <!-- 自習室2\n\n自習室1 -->
      <path
         style="display:inline;fill:#d0b0ff;fill-opacity:1;stroke:#000000;stroke-opacity:1"
         d="m 326,688 v 74 h 90 v -74 z"
         id="Study_Hall_1" />
      <!-- 図書室 -->
      <path
         fill="#ffffff"
         stroke="#000000"
         stroke-width="1px"
         id="Library_of_Science"
         d="m 60,688 v 92 h 266 v -92 z"
         style="display:inline" />
      <path
         style="display:inline;fill:#d0b0ff;fill-opacity:1;stroke:#000000;stroke-opacity:1"
         d="m 416,578 v 74 h 90 v -74 z"
         id="Study_Hall_2" />
      <!-- S21 -->
      <path
         fill="#ffb0b0"
         stroke="#000000"
         stroke-width="1px"
         id="Room_S21"
         d="m 326,578 v 74 h 90 v -74 z"
         style="display:inline" />
      <!-- 司書室\nスペース -->
      <path
         fill="#ffffff"
         stroke="#000000"
         stroke-width="1px"
         id="____sisyosan"
         d="m 236,578 v 49 h 90 v -49 z"
         style="display:inline" />
      <path
         fill="#ffffff"
         stroke="#000000"
         stroke-width="1px"
         id="____syoko"
         d="m 186,578 v 74 h 50 v -74 z"
         style="display:inline" />
      <!-- Talk\nRoom -->
      <path
         d="m 729,399 v 74 h 47 v -74 z"
         id="Talk_Room_2"
         style="display:inline;fill:#d0b0ff;fill-opacity:1;stroke:#000000;stroke-opacity:1" />
      <path
         d="m 686,399 v 74 h 43 v -74 z"
         id="Talk_Room_1"
         style="display:inline;fill:#d0b0ff;fill-opacity:1;stroke:#000000;stroke-opacity:1" />
      <!-- ３   ２\n情報教室\n１ -->
      <path
         d="m 326,399 v 74 h 180 v -74 z"
         id="Computer_Room_1"
         style="display:inline;fill:#d0b0ff;fill-opacity:1;stroke:#000000;stroke-opacity:1" />
      <!-- C23  C22  C21 -->
      <path
         style="display:inline;fill:#d0b0ff;fill-opacity:1;stroke:#000000;stroke-opacity:1"
         d="m 236,399 v 74 h 90 v -74 z"
         id="Seminar_Room_C21" />
      <path
         style="display:inline;fill:#d0b0ff;fill-opacity:1;stroke:#000000;stroke-opacity:1"
         d="m 146,399 v 74 h 90 v -74 z"
         id="Seminar_Room_C22" />
      <path
         style="display:inline;fill:#d0b0ff;fill-opacity:1;stroke:#000000;stroke-opacity:1"
         d="m 60,399 v 74 h 86 v -74 z"
         id="Seminar_Room_C23" />
      <path
         fill="#ffffff"
         stroke="#000000"
         stroke-width="1px"
         id="____denki"
         d="m 596,289 v 74 h 180 v -74 z"
         style="display:inline" />
      <path
         d="m 416,289 v 74 h 90 v -74 z"
         id="Computer_Room_2"
         style="display:inline;fill:#d0b0ff;fill-opacity:1;stroke:#000000;stroke-opacity:1" />
      <path
         d="m 326,289 v 74 h 90 v -74 z"
         id="Computer_Room_3"
         style="display:inline;fill:#d0b0ff;fill-opacity:1;stroke:#000000;stroke-opacity:1" />
      <path
         fill="#ffffff"
         stroke="#000000"
         stroke-width="1px"
         id="____souko2"
         d="m 281,289 v 74 h 45 v -74 z"
         style="display:inline" />
      <path
         fill="#ffe0b0"
         stroke="#000000"
         stroke-width="1px"
         id="Information_Technology_Dept_Office"
         d="m 236,289 v 74 h 45 v -74 z"
         style="display:inline" />
      <!-- プログラミング\n実習室 -->
      <path
         fill="#ffe0b0"
         stroke="#000000"
         stroke-width="1px"
         id="Programming_Lab"
         d="m 60,289 v 74 h 86 v -74 z m 86,0 v 74 h 90 v -74 z"
         style="display:inline" />
      <!-- #4    #3\nCALL教室\n#2    #1 -->
      <path
         d="m 686,110 v 74 h 90 v -74 z"
         id="CALL_1"
         style="display:inline;fill:#d0b0ff;fill-opacity:1;stroke:#000000;stroke-opacity:1" />
      <path
         d="m 596,110 v 74 h 90 v -74 z"
         id="CALL_2"
         style="display:inline;fill:#d0b0ff;fill-opacity:1;stroke:#000000;stroke-opacity:1" />
      <!-- ハード\nウェア\n実習室 -->
      <path
         fill="#ffe0b0"
         stroke="#000000"
         stroke-width="1px"
         id="PC_Hardware_Lab"
         d="m 281,110 v 74 h 135 v -74 z m 90,0 v 74 z"
         style="display:inline" />
      <!-- マルチ\nメディア\n実習室 -->
      <path
         fill="#ffe0b0"
         stroke="#000000"
         stroke-width="1px"
         id="Multimedia_Lab"
         d="m 146,110 v 74 h 135 v -74 z"
         style="display:inline" />
      <path
         d="m 60,110 v 74 h 86 v -74 z"
         id="Seminar_Room_N21"
         style="display:inline;fill:#d0b0ff;fill-opacity:1;stroke:#000000;stroke-opacity:1" />
      <path
         d="m 686,0 v 74 h 90 V 0 Z"
         id="CALL_3"
         style="display:inline;fill:#d0b0ff;fill-opacity:1;stroke:#000000;stroke-opacity:1" />
      <path
         d="m 596,0 v 74 h 90 V 0 Z"
         id="CALL_4"
         style="display:inline;fill:#d0b0ff;fill-opacity:1;stroke:#000000;stroke-opacity:1" />
      <!-- N22\n\n\nN21 -->
      <!-- プレゼンテーション\nスタジオ -->
      <path
         fill="#d0b0ff"
         stroke="#000000"
         stroke-width="1px"
         id="Presentation_Studio"
         d="M 281,0 V 74 H 596 V 0 Z m 135,0 v 74 h 45 V 0 Z"
         style="display:inline" />
      <!-- 情報基礎\n実習室 -->
      <path
         fill="#ffe0b0"
         stroke="#000000"
         stroke-width="1px"
         id="IT_Foundation_Lab"
         d="M 146,0 V 74 H 281 V 0 Z"
         style="display:inline" />
      <path
         d="m 60,0 v 74 h 86 V 0 Z"
         id="Seminar_Room_N22"
         style="display:inline;fill:#d0b0ff;fill-opacity:1;stroke:#000000;stroke-opacity:1" />
      <path
         fill="none"
         stroke="#000000"
         stroke-width="1px"
         d="m 65,184 h 436 v 35 h -65 v 36 h 65 v 34 H 65 v -34 h 65 V 219 H 65 Z m 491,0 h 220 v 35 h -65 v 36 h 65 v 34 H 556 Z M 65,473 H 501 V 578 H 65 v -34 h 65 V 508 H 65 Z m 491,0 V 578 H 776 V 473 Z"
         id="____inner2"
         style="display:inline" />
      <path
         fill="none"
         stroke="#000000"
         stroke-width="1px"
         d="M 0,0 H 804 V 289 H 909 V 762 H 596 V 700 H 416 v 62 h -90 v 18 H 60 V 762 H 0 V 578 H 25 V 473 H 0 V 289 H 25 V 184 H 0 Z"
         id="____outer2"
         style="display:inline" />
      <path
         id="____backyard21"
         style="display:inline;fill:url(#pattern8677);fill-rule:evenodd;stroke-width:0;stroke-linecap:square;stroke-linejoin:round;stroke-miterlimit:0;paint-order:markers stroke fill"
         d="M 60,0 H 864 V 289 H 969 V 762 H 883 V 652 H 836 V 473 H 611 v -74 h 45 V 289 h 180 v -34 h -65 v -36 h 65 V 184 H 60 Z"
         class="UnoptimicedTransforms"
         transform="translate(-60)" />
    </g>
  </g>
</svg>
