<?xml version="1.0" encoding="UTF-8" standalone="no"?>
<svg
   width="1093"
   height="1279"
   version="1.1"
   id="svg282"
   viewBox="0 0 1093 1279"
   xmlns="http://www.w3.org/2000/svg"
   xmlns:svg="http://www.w3.org/2000/svg">
  <defs
     id="defs286" />
  <g
     id="floor_4"
     style="display:inline">
    <g
       transform="translate(20)"
       style="display:inline"
       id="bg4">
      <!-- 4階 -->
      <path
         fill="#ffffe0"
         stroke="#000000"
         stroke-width="1px"
         d="M 56,578 V 762 H 776 V 578 Z"
         id="path238"
         style="stroke:none" />
      <path
         fill="none"
         stroke="#000000"
         stroke-width="1px"
         d="M 56,578 V 762 H 776 V 578 Z"
         id="__outer4" />
      <path
         fill="none"
         stroke="#000000"
         stroke-width="1px"
         d="m 646,578 v 74 z m 40,0 v 74 z m -20,19 v 36 z m -20,0 h 40 z m 0,3 h 40 z m 0,3 h 40 z m 0,3 h 40 z m 0,3 h 20 z m 0,3 h 40 z m 0,3 h 40 z m 0,3 h 40 z m 0,3 h 40 z m 0,3 h 40 z m 0,3 h 40 z m 0,3 h 40 z m 0,3 h 40 z m 40,-24 -20,-3 z"
         id="____staircase41" />
      <path
         fill="none"
         stroke="#000000"
         stroke-width="1px"
         d="m 146,578 v 74 z m 40,0 v 74 z m -20,19 v 36 z m -20,0 h 40 z m 0,3 h 40 z m 0,3 h 40 z m 0,3 h 40 z m 20,3 h 20 z m -20,3 h 40 z m 0,3 h 40 z m 0,3 h 40 z m 0,3 h 40 z m 0,3 h 40 z m 0,3 h 40 z m 0,3 h 40 z m 0,3 h 40 z m 0,-24 20,-3 z"
         id="____staircase42" />
      <!-- テラス -->
      <path
         fill="#ffd080"
         stroke="#000000"
         stroke-width="1px"
         id="____terrace3"
         d="m 326,578 v 74 h 180 v -74 z" />
      <!-- EV -->
      <path
         fill="#ffffff"
         stroke="#000000"
         stroke-width="1px"
         id="____EV41"
         d="m 686,615 v 37 h 29 v -37 z" />
      <!-- WC -->
      <path
         fill="#ffffff"
         stroke="#000000"
         stroke-width="1px"
         id="____WC41"
         d="m 686,578 h 90 v 74 h -61 v -37 h -29 z" />
      <!-- WC -->
      <path
         fill="#ffffff"
         stroke="#000000"
         stroke-width="1px"
         id="____WC42"
         d="m 56,578 h 90 v 37 h -29 v 37 H 56 v -37 z"
         style="display:inline" />
      <path
         fill="#ffb0b0"
         stroke="#000000"
         stroke-width="1px"
         id="Room_S41"
         d="m 686,688 v 74 h 90 v -74 z"
         style="display:inline" />
      <path
         fill="#ffb0b0"
         stroke="#000000"
         stroke-width="1px"
         id="Room_S42"
         d="m 596,688 v 74 h 90 v -74 z"
         style="display:inline" />
      <path
         fill="#ffb0b0"
         stroke="#000000"
         stroke-width="1px"
         id="Room_S43"
         d="m 506,688 v 74 h 90 v -74 z"
         style="display:inline" />
      <path
         fill="#ffb0b0"
         stroke="#000000"
         stroke-width="1px"
         id="Room_S44"
         d="m 416,688 v 74 h 90 v -74 z"
         style="display:inline" />
      <path
         fill="#ffb0b0"
         stroke="#000000"
         stroke-width="1px"
         id="Room_S45"
         d="m 326,688 v 74 h 90 v -74 z"
         style="display:inline;stroke-width:1;stroke-dasharray:none" />
      <path
         fill="#ffb0b0"
         stroke="#000000"
         stroke-width="1px"
         id="Room_S46"
         d="m 236,688 v 74 h 90 v -74 z"
         style="display:inline" />
      <path
         fill="#ffb0b0"
         stroke="#000000"
         stroke-width="1px"
         id="Room_S47"
         d="m 146,688 v 74 h 90 v -74 z"
         style="display:inline" />
      <path
         fill="#ffb0b0"
         stroke="#000000"
         stroke-width="1px"
         id="Room_S48"
         d="m 56,688 v 74 h 90 v -74 z"
         style="display:inline" />
      <!-- S42  S41 -->
      <!-- S45  S44  S43 -->
      <!-- S48  S47  S46 -->
    </g>
  </g>
</svg>
