<?xml version="1.0" encoding="UTF-8" standalone="no"?>
<svg
   width="1093"
   height="1279"
   version="1.1"
   id="svg282"
   viewBox="0 0 1093 1279"
   xmlns="http://www.w3.org/2000/svg"
   xmlns:svg="http://www.w3.org/2000/svg">
  <defs
     id="defs286" />
  <g
     id="floor_5"
     style="display:inline">
    <g
       transform="translate(20)"
       style="display:inline"
       id="bg5">
      <!-- 5階 -->
      <path
         id="path254"
         d="M 56,578 V 762 H 326 506 776 V 578 H 506 v 74 H 326 v -74 z"
         style="fill:#ffffe0;fill-opacity:1;stroke:none" />
      <path
         fill="none"
         stroke="#000000"
         stroke-width="1px"
         d="m 56,578 h 270 v 74 H 506 V 578 H 776 V 762 H 56 Z"
         id="____outer5" />
      <path
         fill="none"
         stroke="#000000"
         stroke-width="1px"
         d="m 646,578 v 74 z m 40,0 v 74 z m -20,19 v 36 z m -20,0 h 40 z m 0,3 h 40 z m 0,3 h 40 z m 0,3 h 40 z m 0,3 h 20 z m 0,3 h 40 z m 0,3 h 40 z m 20,3 h 20 z m 0,3 h 20 z m 0,3 h 20 z m 0,3 h 20 z m 0,3 h 20 z m 0,3 h 20 z m 20,-24 -20,-3 z"
         id="____staircase51" />
      <path
         fill="none"
         stroke="#000000"
         stroke-width="1px"
         d="m 146,578 v 74 z m 40,0 v 74 z m -20,19 v 36 z m -20,0 h 40 z m 0,3 h 40 z m 0,3 h 40 z m 0,3 h 40 z m 20,3 h 20 z m -20,3 h 40 z m 0,3 h 40 z m 0,3 h 20 z m 0,3 h 20 z m 0,3 h 20 z m 0,3 h 20 z m 0,3 h 20 z m 0,3 h 20 z m 0,-24 20,-3 z"
         id="____staircase52" />
      <path
         fill="#ffd080"
         stroke="#000000"
         stroke-width="1px"
         id="____veranda11"
         d="m 281,578 v 74 h 45 v -74 z m 225,0 v 74 h 45 v -74 z" />
      <!-- EV -->
      <path
         fill="#ffffff"
         stroke="#000000"
         stroke-width="1px"
         id="____EV51"
         d="m 686,615 v 37 h 29 v -37 z" />
      <!-- WC -->
      <path
         fill="#ffffff"
         stroke="#000000"
         stroke-width="1px"
         id="____WC51"
         d="m 686,578 h 90 v 74 h -61 v -37 h -29 z" />
      <!-- WC -->
      <path
         fill="#ffffff"
         stroke="#000000"
         stroke-width="1px"
         id="____WC52"
         d="m 56,578 h 90 v 37 h -29 v 37 H 56 v -37 z" />
      <path
         fill="#ffb0b0"
         stroke="#000000"
         stroke-width="1px"
         id="Room_S51"
         d="m 686,688 v 74 h 90 v -74 z"
         style="display:inline" />
      <path
         fill="#ffb0b0"
         stroke="#000000"
         stroke-width="1px"
         id="Room_S52"
         d="m 596,688 v 74 h 90 v -74 z"
         style="display:inline" />
      <path
         fill="#ffb0b0"
         stroke="#000000"
         stroke-width="1px"
         id="Room_S53"
         d="m 506,688 v 74 h 90 v -74 z"
         style="display:inline" />
      <path
         fill="#ffb0b0"
         stroke="#000000"
         stroke-width="1px"
         id="Room_S54"
         d="m 416,688 v 74 h 90 v -74 z"
         style="display:inline" />
      <path
         fill="#ffb0b0"
         stroke="#000000"
         stroke-width="1px"
         id="Room_S55"
         d="m 326,688 v 74 h 90 v -74 z"
         style="display:inline" />
      <path
         fill="#ffb0b0"
         stroke="#000000"
         stroke-width="1px"
         id="Room_S56"
         d="m 236,688 v 74 h 90 v -74 z"
         style="display:inline" />
      <path
         fill="#ffb0b0"
         stroke="#000000"
         stroke-width="1px"
         id="Room_S57"
         d="m 146,688 v 74 h 90 v -74 z"
         style="display:inline" />
      <path
         fill="#ffb0b0"
         stroke="#000000"
         stroke-width="1px"
         id="Room_S58"
         d="m 56,688 v 74 h 90 v -74 z"
         style="display:inline" />
      <!-- S52  S51 -->
      <!-- S55  S54  S53 -->
      <!-- S58  S57  S56 -->
    </g>
  </g>
</svg>
