<?xml version="1.0" encoding="UTF-8" standalone="no"?>
<svg
   width="1093"
   height="1279"
   version="1.1"
   id="svg282"
   viewBox="0 0 1093 1279"
   xmlns="http://www.w3.org/2000/svg"
   xmlns:svg="http://www.w3.org/2000/svg">
  <defs
     id="defs286" />
  <g
     id="floor_6"
     style="display:inline">
    <g
       transform="translate(20)"
       style="display:inline"
       id="bg6">
      <path
         fill="none"
         stroke="#000000"
         stroke-width="1px"
         d="m 56,578 h 225 v 74 H 551 V 578 H 776 V 762 H 56 Z"
         id="path272-4"
         style="display:inline;fill:#ffffff;fill-opacity:1;stroke:none" />
      <!-- 6階 -->
      <path
         fill="#e0ffff"
         stroke="#000000"
         stroke-width="1px"
         d="m 146,652 h -33 v 26 h 10 v 8 H 275 123 v 69 H 715 V 686 H 557 715 v -34 h -29 v 9 H 146 Z"
         id="path270" />
      <path
         fill="none"
         stroke="#000000"
         stroke-width="1px"
         d="m 56,578 h 225 v 74 H 551 V 578 H 776 V 762 H 56 Z"
         id="____outer6" />
      <path
         fill="none"
         stroke="#000000"
         stroke-width="1px"
         d="m 666,578 v 83 h 20 v -83 z m 0,31 h 20 z m 0,3 h 20 z m 0,3 h 20 z m 0,3 h 20 z m 0,3 h 20 z m 0,3 h 20 z m 0,3 h 20 z m 0,3 h 20 z m 0,3 h 20 z m 0,3 h 20 z m 0,3 h 20 z m 0,3 h 20 z m 0,3 h 20 z m 0,3 h 20 z m 0,3 h 20 z m 20,-42 -20,-3 z"
         id="____staircase61" />
      <path
         fill="none"
         stroke="#000000"
         stroke-width="1px"
         d="m 146,578 v 83 h 20 v -83 z m 0,31 h 20 z m 0,3 h 20 z m 0,3 h 20 z m 0,3 h 20 z m 0,3 h 20 z m 0,3 h 20 z m 0,3 h 20 z m 0,3 h 20 z m 0,3 h 20 z m 0,3 h 20 z m 0,3 h 20 z m 0,3 h 20 z m 0,3 h 20 z m 0,3 h 20 z m 0,3 h 20 z m 0,-42 20,-3 z"
         id="____staircase62" />
      <!-- EV -->
      <path
         fill="#ffffff"
         stroke="#000000"
         stroke-width="1px"
         id="____EV61"
         d="m 686,615 v 37 h 29 v -37 z" />
      <!-- WC\n\n  -->
      <path
         fill="#ffffff"
         stroke="#000000"
         stroke-width="1px"
         id="____WC62"
         d="m 113,600 v 52 h 33 v -52 z" />
      <!-- 天体観測\n\nドーム -->
      <path
         fill="#c0c0c0"
         stroke="#000000"
         stroke-width="1px"
         id="Astronomical_Observatory"
         d="" />
    </g>
  </g>
</svg>
